<?xml version="1.0" encoding="utf-8"?>
<!-- Generator: Adobe Illustrator 24.0.2, SVG Export Plug-In . SVG Version: 6.00 Build 0)  -->
<svg version="1.1" id="Layer_1" xmlns="http://www.w3.org/2000/svg" xmlns:xlink="http://www.w3.org/1999/xlink" x="0px" y="0px"
	 viewBox="0 0 350 70" style="enable-background:new 0 0 350 70;" xml:space="preserve">
<style type="text/css">
	.st0{fill:#231F20;}
</style>
<g>
	<g>
		<polygon class="st0" points="67.5,62.5 49.3,62.5 58.4,53.4 		"/>
		<polygon class="st0" points="67.6,34.9 58.4,25.8 44.6,39.6 35.5,48.7 44.6,57.9 53.8,48.7 		"/>
		<polygon class="st0" points="67.5,7.5 49.2,25.9 40,35 30.9,44.2 21.8,35 30.9,25.9 40,16.8 49.3,7.5 		"/>
	</g>
	<path class="st0" d="M132,15.3V7.4h-23v55.3h8.7V38.5H129v-7.9h-11.2V15.3H132z"/>
	<path class="st0" d="M152.2,7.4h-11.8l-9,55.3h8.1l1.6-10.8h9.9v-0.2l1.6,11h8.7L152.2,7.4z M142.1,44.3l3.8-27.3h0.2l3.9,27.3
		H142.1z"/>
	<path class="st0" d="M185.7,33.3v-0.2c1.9-0.8,3.3-2.1,4.2-3.9c0.9-1.8,1.4-4.1,1.4-6.9v-2.2c0-4.3-1-7.5-3.1-9.6
		c-2.1-2.1-5.3-3.1-9.8-3.1h-13.1v55.3H179c4.3,0,7.6-1.1,9.8-3.3c2.2-2.3,3.4-5.5,3.4-9.8v-4.8C192.2,38.6,190,34.7,185.7,33.3z
		 M174,15.3h4.2c1.5,0,2.7,0.4,3.4,1.3c0.7,0.9,1.1,2.4,1.1,4.4V24c0,2.1-0.4,3.6-1.3,4.5c-0.9,0.9-2.2,1.3-3.9,1.3H174V15.3z
		 M183.5,49.3c0,2-0.4,3.4-1.1,4.2c-0.7,0.8-1.9,1.2-3.4,1.2h-5v-17h3.9c2,0,3.4,0.5,4.3,1.5c0.9,1,1.3,2.7,1.3,5.2V49.3z"/>
	<path class="st0" d="M229.1,7.4v55.3h8.7V7.4H229.1z"/>
	<path class="st0" d="M247.8,59.3v-52h-3.6v55.3h21v-3.3H247.8z"/>
	<path class="st0" d="M270.6,7.4v55.3h3.6V7.4H270.6z"/>
	<path class="st0" d="M301.5,10.7V7.4h-21v55.3h3.6v-25h14.3v-3.3h-14.3V10.7H301.5z"/>
	<path class="st0" d="M328.9,59.3"/>
	<polygon class="st0" points="325.8,32.9 310.7,32.9 310.7,10.7 328.9,10.7 328.9,7.4 307.1,7.4 307.1,62.6 328.9,62.6 328.9,59.3 
		310.7,59.3 310.7,36.3 325.8,36.3 	"/>
	<path class="st0" d="M328.9,10.7"/>
	<path class="st0" d="M221.8,38.4c-0.9-1.9-2.3-3.2-4.4-3.9v-0.2c3.8-1.5,5.7-5.2,5.7-10.9v-3.4c0-4.3-1-7.5-3.1-9.6
		c-2.1-2.1-5.3-3.1-9.8-3.1h-12.9v55.3h8.7V38.9h3c2,0,3.4,0.5,4.2,1.5c0.8,1,1.2,2.8,1.2,5.3v3.6v6.5v6.8h0.8h2.7h5.2V46.2
		C223.1,42.9,222.6,40.3,221.8,38.4z M214.3,25.2c0,2.1-0.4,3.6-1.3,4.5c-0.9,0.9-2.2,1.3-3.9,1.3h-3.2V15.3h3.9
		c1.5,0,2.7,0.4,3.4,1.3c0.7,0.9,1.1,2.4,1.1,4.4V25.2z"/>
</g>
</svg>
