<svg xmlns="http://www.w3.org/2000/svg" xmlns:xlink="http://www.w3.org/1999/xlink" width="2149" zoomAndPan="magnify" viewBox="0 0 1611.75 437.999984" height="584" preserveAspectRatio="xMidYMid meet" version="1.0"><defs><g/><clipPath id="d9858a2744"><path d="M 45 13 L 1568 13 L 1568 437.964844 L 45 437.964844 Z M 45 13 " clip-rule="nonzero"/></clipPath><clipPath id="b64093d1c2"><path d="M 670 0.429688 L 836 0.429688 L 836 74 L 670 74 Z M 670 0.429688 " clip-rule="nonzero"/></clipPath><clipPath id="b7c0040fd9"><path d="M 625.386719 110 L 878.203125 110 L 878.203125 129 L 625.386719 129 Z M 625.386719 110 " clip-rule="nonzero"/></clipPath><clipPath id="6ed6c1c727"><path d="M 0.113281 223 L 1522.917969 223 L 1522.917969 424.964844 L 0.113281 424.964844 Z M 0.113281 223 " clip-rule="nonzero"/></clipPath><clipPath id="c739ac5cdc"><rect x="0" width="1523" y="0" height="202"/></clipPath><clipPath id="036479166b"><rect x="0" width="286" y="0" height="117"/></clipPath><clipPath id="a0bfe2c9ed"><rect x="0" width="1523" y="0" height="425"/></clipPath></defs><g clip-path="url(#d9858a2744)"><g transform="matrix(1, 0, 0, 1, 45, 13)"><g clip-path="url(#a0bfe2c9ed)"><g clip-path="url(#b64093d1c2)"><path fill="#ffffff" d="M 776.046875 18.691406 L 757.785156 18.691406 C 755.269531 18.691406 753.21875 16.640625 753.21875 14.128906 C 753.21875 11.613281 755.269531 9.5625 757.785156 9.5625 L 776.046875 9.5625 C 778.558594 9.5625 780.609375 11.613281 780.609375 14.128906 C 780.609375 16.640625 778.558594 18.691406 776.046875 18.691406 Z M 739.523438 18.691406 L 730.390625 18.691406 C 727.875 18.691406 725.824219 16.640625 725.824219 14.128906 C 725.824219 11.613281 727.875 9.5625 730.390625 9.5625 L 739.523438 9.5625 C 742.035156 9.5625 744.085938 11.613281 744.085938 14.128906 C 744.085938 16.640625 742.035156 18.691406 739.523438 18.691406 Z M 712.128906 18.691406 C 704.566406 18.691406 698.433594 24.828125 698.433594 32.386719 C 698.433594 34.902344 696.382812 36.953125 693.867188 36.953125 C 691.355469 36.953125 689.300781 34.902344 689.300781 32.386719 C 689.300781 19.796875 699.539062 9.5625 712.128906 9.5625 C 714.644531 9.5625 716.695312 11.613281 716.695312 14.128906 C 716.695312 16.640625 714.644531 18.691406 712.128906 18.691406 Z M 828.316406 12.46875 C 827.441406 5.601562 821.574219 0.429688 814.671875 0.429688 L 691.746094 0.429688 C 684.84375 0.429688 678.996094 5.601562 678.140625 12.449219 L 670.507812 73.476562 L 835.929688 73.476562 L 828.316406 12.46875 " fill-opacity="1" fill-rule="nonzero"/></g><path fill="#ffffff" d="M 836.089844 82.609375 L 670.347656 82.609375 L 667.296875 100.871094 L 839.140625 100.871094 L 836.089844 82.609375 " fill-opacity="1" fill-rule="nonzero"/><g clip-path="url(#b7c0040fd9)"><path fill="#ffffff" d="M 858.222656 110 L 648.214844 110 C 637.191406 110 627.972656 117.847656 625.851562 128.261719 L 880.585938 128.261719 C 878.460938 117.847656 869.242188 110 858.222656 110 " fill-opacity="1" fill-rule="nonzero"/></g><g clip-path="url(#6ed6c1c727)"><g transform="matrix(1, 0, 0, 1, 0, 223)"><g clip-path="url(#c739ac5cdc)"><g fill="#ffffff" fill-opacity="1"><g transform="translate(5.644697, 154.587561)"><g><path d="M 4.109375 -73.84375 C 4.109375 -95.175781 11.378906 -113.234375 25.921875 -128.015625 C 40.460938 -142.796875 57.984375 -150.1875 78.484375 -150.1875 C 99.109375 -150.1875 116.628906 -142.828125 131.046875 -128.109375 C 145.472656 -113.390625 152.6875 -95.300781 152.6875 -73.84375 C 152.6875 -52.269531 145.59375 -34.117188 131.40625 -19.390625 C 117.226562 -4.671875 99.585938 2.6875 78.484375 2.6875 C 56.910156 2.6875 39.117188 -4.613281 25.109375 -19.21875 C 11.109375 -33.820312 4.109375 -52.03125 4.109375 -73.84375 Z M 40.40625 -73.84375 C 40.40625 -66.09375 41.597656 -59.03125 43.984375 -52.65625 C 46.367188 -46.28125 50.539062 -40.882812 56.5 -36.46875 C 62.457031 -32.0625 69.785156 -29.859375 78.484375 -29.859375 C 91.003906 -29.859375 100.453125 -34.148438 106.828125 -42.734375 C 113.203125 -51.316406 116.390625 -61.6875 116.390625 -73.84375 C 116.390625 -85.882812 113.140625 -96.222656 106.640625 -104.859375 C 100.148438 -113.503906 90.765625 -117.828125 78.484375 -117.828125 C 66.328125 -117.828125 56.941406 -113.503906 50.328125 -104.859375 C 43.710938 -96.222656 40.40625 -85.882812 40.40625 -73.84375 Z M 40.40625 -73.84375 "/></g></g></g><g fill="#ffffff" fill-opacity="1"><g transform="translate(162.402691, 154.587561)"><g><path d="M 44.34375 -91.546875 L 44.34375 0 L 10.734375 0 L 10.734375 -147.5 L 44.34375 -147.5 L 102.984375 -55.96875 L 103.34375 -55.96875 L 103.34375 -147.5 L 136.953125 -147.5 L 136.953125 0 L 103.34375 0 L 44.703125 -91.546875 Z M 44.34375 -91.546875 "/></g></g></g><g fill="#ffffff" fill-opacity="1"><g transform="translate(310.04478, 154.587561)"><g><path d="M 95.125 -147.5 L 95.125 -118 L 44.34375 -118 L 44.34375 -88.6875 L 92.96875 -88.6875 L 92.96875 -59.1875 L 44.34375 -59.1875 L 44.34375 -29.5 L 95.125 -29.5 L 95.125 0 L 10.734375 0 L 10.734375 -147.5 Z M 95.125 -147.5 "/></g></g></g><g fill="#ffffff" fill-opacity="1"><g transform="translate(413.716006, 154.587561)"><g/></g></g><g fill="#ffffff" fill-opacity="1"><g transform="translate(462.51301, 154.587561)"><g><path d="M 85.640625 -147.5 L 145.1875 0 L 109.0625 0 L 98.15625 -29.5 L 42.015625 -29.5 L 31.109375 0 L -5 0 L 54.53125 -147.5 Z M 86.71875 -59 L 70.265625 -101.921875 L 69.90625 -101.921875 L 53.453125 -59 Z M 86.71875 -59 "/></g></g></g><g fill="#ffffff" fill-opacity="1"><g transform="translate(602.647855, 154.587561)"><g><path d="M 89.21875 -30.390625 C 94.34375 -30.390625 99.316406 -31.164062 104.140625 -32.71875 C 108.972656 -34.269531 112.519531 -35.757812 114.78125 -37.1875 L 118.1875 -39.515625 L 132.484375 -10.90625 C 132.003906 -10.550781 131.347656 -10.070312 130.515625 -9.46875 C 129.679688 -8.875 127.742188 -7.769531 124.703125 -6.15625 C 121.671875 -4.550781 118.425781 -3.148438 114.96875 -1.953125 C 111.507812 -0.765625 106.976562 0.300781 101.375 1.25 C 95.769531 2.207031 89.988281 2.6875 84.03125 2.6875 C 70.320312 2.6875 57.328125 -0.675781 45.046875 -7.40625 C 32.773438 -14.144531 22.882812 -23.414062 15.375 -35.21875 C 7.863281 -47.019531 4.109375 -59.773438 4.109375 -73.484375 C 4.109375 -83.859375 6.3125 -93.8125 10.71875 -103.34375 C 15.132812 -112.875 21.003906 -121.035156 28.328125 -127.828125 C 35.660156 -134.628906 44.210938 -140.054688 53.984375 -144.109375 C 63.765625 -148.160156 73.78125 -150.1875 84.03125 -150.1875 C 93.570312 -150.1875 102.363281 -149.050781 110.40625 -146.78125 C 118.445312 -144.519531 124.140625 -142.257812 127.484375 -140 L 132.484375 -136.59375 L 118.1875 -108 C 117.351562 -108.707031 116.097656 -109.566406 114.421875 -110.578125 C 112.753906 -111.597656 109.414062 -112.941406 104.40625 -114.609375 C 99.40625 -116.273438 94.34375 -117.109375 89.21875 -117.109375 C 81.113281 -117.109375 73.84375 -115.796875 67.40625 -113.171875 C 60.96875 -110.554688 55.867188 -107.101562 52.109375 -102.8125 C 48.359375 -98.519531 45.5 -93.898438 43.53125 -88.953125 C 41.570312 -84.003906 40.59375 -78.96875 40.59375 -73.84375 C 40.59375 -62.632812 44.789062 -52.585938 53.1875 -43.703125 C 61.59375 -34.828125 73.601562 -30.390625 89.21875 -30.390625 Z M 89.21875 -30.390625 "/></g></g></g><g fill="#ffffff" fill-opacity="1"><g transform="translate(737.241703, 154.587561)"><g><path d="M 89.21875 -30.390625 C 94.34375 -30.390625 99.316406 -31.164062 104.140625 -32.71875 C 108.972656 -34.269531 112.519531 -35.757812 114.78125 -37.1875 L 118.1875 -39.515625 L 132.484375 -10.90625 C 132.003906 -10.550781 131.347656 -10.070312 130.515625 -9.46875 C 129.679688 -8.875 127.742188 -7.769531 124.703125 -6.15625 C 121.671875 -4.550781 118.425781 -3.148438 114.96875 -1.953125 C 111.507812 -0.765625 106.976562 0.300781 101.375 1.25 C 95.769531 2.207031 89.988281 2.6875 84.03125 2.6875 C 70.320312 2.6875 57.328125 -0.675781 45.046875 -7.40625 C 32.773438 -14.144531 22.882812 -23.414062 15.375 -35.21875 C 7.863281 -47.019531 4.109375 -59.773438 4.109375 -73.484375 C 4.109375 -83.859375 6.3125 -93.8125 10.71875 -103.34375 C 15.132812 -112.875 21.003906 -121.035156 28.328125 -127.828125 C 35.660156 -134.628906 44.210938 -140.054688 53.984375 -144.109375 C 63.765625 -148.160156 73.78125 -150.1875 84.03125 -150.1875 C 93.570312 -150.1875 102.363281 -149.050781 110.40625 -146.78125 C 118.445312 -144.519531 124.140625 -142.257812 127.484375 -140 L 132.484375 -136.59375 L 118.1875 -108 C 117.351562 -108.707031 116.097656 -109.566406 114.421875 -110.578125 C 112.753906 -111.597656 109.414062 -112.941406 104.40625 -114.609375 C 99.40625 -116.273438 94.34375 -117.109375 89.21875 -117.109375 C 81.113281 -117.109375 73.84375 -115.796875 67.40625 -113.171875 C 60.96875 -110.554688 55.867188 -107.101562 52.109375 -102.8125 C 48.359375 -98.519531 45.5 -93.898438 43.53125 -88.953125 C 41.570312 -84.003906 40.59375 -78.96875 40.59375 -73.84375 C 40.59375 -62.632812 44.789062 -52.585938 53.1875 -43.703125 C 61.59375 -34.828125 73.601562 -30.390625 89.21875 -30.390625 Z M 89.21875 -30.390625 "/></g></g></g><g fill="#ffffff" fill-opacity="1"><g transform="translate(871.835551, 154.587561)"><g><path d="M 95.125 -147.5 L 95.125 -118 L 44.34375 -118 L 44.34375 -88.6875 L 92.96875 -88.6875 L 92.96875 -59.1875 L 44.34375 -59.1875 L 44.34375 -29.5 L 95.125 -29.5 L 95.125 0 L 10.734375 0 L 10.734375 -147.5 Z M 95.125 -147.5 "/></g></g></g><g fill="#ffffff" fill-opacity="1"><g transform="translate(975.506776, 154.587561)"><g><path d="M 65.078125 -150.1875 C 73.066406 -150.1875 80.875 -149.023438 88.5 -146.703125 C 96.132812 -144.378906 101.796875 -142.082031 105.484375 -139.8125 L 110.859375 -136.25 L 97.265625 -109.421875 C 96.191406 -110.140625 94.703125 -111.0625 92.796875 -112.1875 C 90.890625 -113.320312 87.3125 -114.84375 82.0625 -116.75 C 76.820312 -118.65625 71.9375 -119.609375 67.40625 -119.609375 C 61.800781 -119.609375 57.476562 -118.414062 54.4375 -116.03125 C 51.40625 -113.65625 49.890625 -110.441406 49.890625 -106.390625 C 49.890625 -104.359375 50.601562 -102.476562 52.03125 -100.75 C 53.457031 -99.019531 55.898438 -97.171875 59.359375 -95.203125 C 62.816406 -93.242188 65.851562 -91.664062 68.46875 -90.46875 C 71.09375 -89.28125 75.148438 -87.492188 80.640625 -85.109375 C 90.171875 -81.054688 98.300781 -75.539062 105.03125 -68.5625 C 111.769531 -61.59375 115.140625 -53.695312 115.140625 -44.875 C 115.140625 -36.414062 113.617188 -29.023438 110.578125 -22.703125 C 107.546875 -16.390625 103.375 -11.441406 98.0625 -7.859375 C 92.757812 -4.285156 86.890625 -1.632812 80.453125 0.09375 C 74.015625 1.820312 67.046875 2.6875 59.546875 2.6875 C 53.109375 2.6875 46.789062 2.03125 40.59375 0.71875 C 34.394531 -0.59375 29.207031 -2.234375 25.03125 -4.203125 C 20.863281 -6.171875 17.109375 -8.109375 13.765625 -10.015625 C 10.429688 -11.921875 7.988281 -13.53125 6.4375 -14.84375 L 4.109375 -16.8125 L 20.921875 -45.0625 C 22.347656 -43.863281 24.3125 -42.335938 26.8125 -40.484375 C 29.320312 -38.640625 33.765625 -36.164062 40.140625 -33.0625 C 46.515625 -29.96875 52.144531 -28.421875 57.03125 -28.421875 C 71.21875 -28.421875 78.3125 -33.25 78.3125 -42.90625 C 78.3125 -44.9375 77.804688 -46.816406 76.796875 -48.546875 C 75.785156 -50.273438 73.992188 -52.003906 71.421875 -53.734375 C 68.859375 -55.460938 66.59375 -56.832031 64.625 -57.84375 C 62.664062 -58.851562 59.453125 -60.398438 54.984375 -62.484375 C 50.515625 -64.578125 47.207031 -66.160156 45.0625 -67.234375 C 36.113281 -71.640625 29.195312 -77.148438 24.3125 -83.765625 C 19.425781 -90.378906 16.984375 -97.5 16.984375 -105.125 C 16.984375 -118.363281 21.867188 -129.179688 31.640625 -137.578125 C 41.421875 -145.984375 52.566406 -150.1875 65.078125 -150.1875 Z M 65.078125 -150.1875 "/></g></g></g><g fill="#ffffff" fill-opacity="1"><g transform="translate(1095.622358, 154.587561)"><g><path d="M 65.078125 -150.1875 C 73.066406 -150.1875 80.875 -149.023438 88.5 -146.703125 C 96.132812 -144.378906 101.796875 -142.082031 105.484375 -139.8125 L 110.859375 -136.25 L 97.265625 -109.421875 C 96.191406 -110.140625 94.703125 -111.0625 92.796875 -112.1875 C 90.890625 -113.320312 87.3125 -114.84375 82.0625 -116.75 C 76.820312 -118.65625 71.9375 -119.609375 67.40625 -119.609375 C 61.800781 -119.609375 57.476562 -118.414062 54.4375 -116.03125 C 51.40625 -113.65625 49.890625 -110.441406 49.890625 -106.390625 C 49.890625 -104.359375 50.601562 -102.476562 52.03125 -100.75 C 53.457031 -99.019531 55.898438 -97.171875 59.359375 -95.203125 C 62.816406 -93.242188 65.851562 -91.664062 68.46875 -90.46875 C 71.09375 -89.28125 75.148438 -87.492188 80.640625 -85.109375 C 90.171875 -81.054688 98.300781 -75.539062 105.03125 -68.5625 C 111.769531 -61.59375 115.140625 -53.695312 115.140625 -44.875 C 115.140625 -36.414062 113.617188 -29.023438 110.578125 -22.703125 C 107.546875 -16.390625 103.375 -11.441406 98.0625 -7.859375 C 92.757812 -4.285156 86.890625 -1.632812 80.453125 0.09375 C 74.015625 1.820312 67.046875 2.6875 59.546875 2.6875 C 53.109375 2.6875 46.789062 2.03125 40.59375 0.71875 C 34.394531 -0.59375 29.207031 -2.234375 25.03125 -4.203125 C 20.863281 -6.171875 17.109375 -8.109375 13.765625 -10.015625 C 10.429688 -11.921875 7.988281 -13.53125 6.4375 -14.84375 L 4.109375 -16.8125 L 20.921875 -45.0625 C 22.347656 -43.863281 24.3125 -42.335938 26.8125 -40.484375 C 29.320312 -38.640625 33.765625 -36.164062 40.140625 -33.0625 C 46.515625 -29.96875 52.144531 -28.421875 57.03125 -28.421875 C 71.21875 -28.421875 78.3125 -33.25 78.3125 -42.90625 C 78.3125 -44.9375 77.804688 -46.816406 76.796875 -48.546875 C 75.785156 -50.273438 73.992188 -52.003906 71.421875 -53.734375 C 68.859375 -55.460938 66.59375 -56.832031 64.625 -57.84375 C 62.664062 -58.851562 59.453125 -60.398438 54.984375 -62.484375 C 50.515625 -64.578125 47.207031 -66.160156 45.0625 -67.234375 C 36.113281 -71.640625 29.195312 -77.148438 24.3125 -83.765625 C 19.425781 -90.378906 16.984375 -97.5 16.984375 -105.125 C 16.984375 -118.363281 21.867188 -129.179688 31.640625 -137.578125 C 41.421875 -145.984375 52.566406 -150.1875 65.078125 -150.1875 Z M 65.078125 -150.1875 "/></g></g></g><g fill="#ffffff" fill-opacity="1"><g transform="translate(1215.73794, 154.587561)"><g/></g></g><g fill="#ffffff" fill-opacity="1"><g transform="translate(1264.534944, 154.587561)"><g><path d="M 10.734375 -147.5 L 56.5 -147.5 C 70.320312 -147.5 81.347656 -144.550781 89.578125 -138.65625 C 97.804688 -132.757812 101.921875 -123.191406 101.921875 -109.953125 C 101.921875 -95.179688 95.78125 -84.632812 83.5 -78.3125 C 104.476562 -74.613281 114.96875 -62.21875 114.96875 -41.125 C 114.96875 -28.726562 110.675781 -18.773438 102.09375 -11.265625 C 93.507812 -3.753906 81.707031 0 66.6875 0 L 10.734375 0 Z M 44.34375 -89.75 L 47.03125 -89.75 C 54.53125 -89.75 60.128906 -91.0625 63.828125 -93.6875 C 67.523438 -96.3125 69.375 -100.601562 69.375 -106.5625 C 69.375 -116.570312 61.925781 -121.578125 47.03125 -121.578125 L 44.34375 -121.578125 Z M 44.34375 -25.921875 L 54.890625 -25.921875 C 71.335938 -25.921875 79.5625 -31.40625 79.5625 -42.375 C 79.5625 -48.925781 77.503906 -53.632812 73.390625 -56.5 C 69.285156 -59.363281 63.117188 -60.796875 54.890625 -60.796875 L 44.34375 -60.796875 Z M 44.34375 -25.921875 "/></g></g></g><g fill="#ffffff" fill-opacity="1"><g transform="translate(1383.578085, 154.587561)"><g><path d="M 10.734375 -147.5 L 53.453125 -147.5 C 73.960938 -147.5 91.488281 -140.492188 106.03125 -126.484375 C 120.570312 -112.484375 127.84375 -94.9375 127.84375 -73.84375 C 127.84375 -52.625 120.597656 -35.007812 106.109375 -21 C 91.628906 -7 74.078125 0 53.453125 0 L 10.734375 0 Z M 44.34375 -30.03125 L 49.53125 -30.03125 C 61.800781 -30.03125 71.835938 -34.171875 79.640625 -42.453125 C 87.453125 -50.742188 91.421875 -61.148438 91.546875 -73.671875 C 91.546875 -86.179688 87.640625 -96.609375 79.828125 -104.953125 C 72.023438 -113.296875 61.925781 -117.46875 49.53125 -117.46875 L 44.34375 -117.46875 Z M 44.34375 -30.03125 "/></g></g></g></g></g></g><g transform="matrix(1, 0, 0, 1, 611, 132)"><g clip-path="url(#036479166b)"><g fill="#ffffff" fill-opacity="1"><g transform="translate(8.055297, 77.756983)"><g><path d="M 0.734375 -60.921875 L 0.734375 -76.140625 L 54.265625 -76.140625 L 54.265625 -60.921875 L 36.1875 -60.921875 L 36.1875 0 L 18.828125 0 L 18.828125 -60.921875 Z M 0.734375 -60.921875 "/></g></g></g><g fill="#ffffff" fill-opacity="1"><g transform="translate(63.06612, 77.756983)"><g><path d="M 49.109375 -76.140625 L 49.109375 -60.921875 L 22.890625 -60.921875 L 22.890625 -45.78125 L 48 -45.78125 L 48 -30.546875 L 22.890625 -30.546875 L 22.890625 -15.234375 L 49.109375 -15.234375 L 49.109375 0 L 5.53125 0 L 5.53125 -76.140625 Z M 49.109375 -76.140625 "/></g></g></g><g fill="#ffffff" fill-opacity="1"><g transform="translate(116.600144, 77.756983)"><g><path d="M 44.203125 -76.140625 L 74.9375 0 L 56.296875 0 L 50.671875 -15.234375 L 21.6875 -15.234375 L 16.0625 0 L -2.578125 0 L 28.15625 -76.140625 Z M 44.765625 -30.453125 L 36.265625 -52.609375 L 36.09375 -52.609375 L 27.59375 -30.453125 Z M 44.765625 -30.453125 "/></g></g></g><g fill="#ffffff" fill-opacity="1"><g transform="translate(188.963336, 77.756983)"><g><path d="M 68.484375 0 L 64.890625 -45.140625 L 64.421875 -45.140625 L 48.828125 -0.46875 L 38.484375 -0.46875 L 22.890625 -45.140625 L 22.421875 -45.140625 L 18.828125 0 L 1.484375 0 L 8.3125 -76.140625 L 26.765625 -76.140625 L 43.65625 -32.21875 L 60.546875 -76.140625 L 79 -76.140625 L 85.84375 0 Z M 68.484375 0 "/></g></g></g></g></g></g></g></g></svg>