<svg xmlns="http://www.w3.org/2000/svg" xmlns:xlink="http://www.w3.org/1999/xlink" width="500" zoomAndPan="magnify" viewBox="0 0 375 374.999991" height="500" preserveAspectRatio="xMidYMid meet" version="1.0"><defs><clipPath id="0975d6597f"><path d="M 112.5 146.558594 L 262.5 146.558594 L 262.5 194.558594 L 112.5 194.558594 Z M 112.5 146.558594 " clip-rule="nonzero"/></clipPath><clipPath id="b48438d113"><path d="M 64 92.386719 L 311 92.386719 L 311 202 L 64 202 Z M 64 92.386719 " clip-rule="nonzero"/></clipPath><clipPath id="4f495a34ad"><path d="M 0 255 L 375 255 L 375 282.886719 L 0 282.886719 Z M 0 255 " clip-rule="nonzero"/></clipPath></defs><g clip-path="url(#0975d6597f)"><path fill="#ee4d2d" d="M 139.871094 180.429688 C 139.609375 182.601562 138.292969 184.339844 136.253906 185.210938 C 135.121094 185.695312 133.59375 185.957031 132.390625 185.875 C 130.507812 185.804688 128.738281 185.347656 127.109375 184.507812 C 126.527344 184.210938 125.660156 183.613281 124.992188 183.054688 C 124.824219 182.910156 124.804688 182.820312 124.914062 182.664062 C 124.976562 182.570312 125.085938 182.40625 125.332031 182.046875 C 125.6875 181.527344 125.734375 181.460938 125.773438 181.398438 C 125.886719 181.222656 126.074219 181.207031 126.253906 181.351562 C 126.273438 181.367188 126.273438 181.367188 126.289062 181.378906 C 126.320312 181.402344 126.320312 181.402344 126.390625 181.457031 C 126.460938 181.511719 126.503906 181.546875 126.519531 181.558594 C 128.277344 182.933594 130.324219 183.730469 132.394531 183.808594 C 135.269531 183.769531 137.335938 182.476562 137.707031 180.492188 C 138.113281 178.304688 136.398438 176.417969 133.042969 175.367188 C 131.992188 175.039062 129.339844 173.976562 128.851562 173.6875 C 126.554688 172.339844 125.480469 170.578125 125.632812 168.394531 C 125.867188 165.375 128.671875 163.121094 132.21875 163.105469 C 133.804688 163.101562 135.386719 163.429688 136.90625 164.070312 C 137.445312 164.296875 138.40625 164.820312 138.738281 165.066406 C 138.925781 165.207031 138.964844 165.371094 138.855469 165.546875 C 138.792969 165.652344 138.695312 165.8125 138.480469 166.152344 L 138.476562 166.15625 C 138.199219 166.601562 138.1875 166.613281 138.125 166.71875 C 138.011719 166.886719 137.882812 166.902344 137.683594 166.777344 C 136.054688 165.683594 134.253906 165.132812 132.269531 165.09375 C 129.800781 165.144531 127.949219 166.613281 127.828125 168.613281 C 127.796875 170.421875 129.152344 171.742188 132.082031 172.746094 C 138.027344 174.65625 140.300781 176.898438 139.871094 180.429688 M 132.53125 149.222656 C 136.402344 149.222656 139.554688 152.894531 139.703125 157.492188 L 125.359375 157.492188 C 125.507812 152.894531 128.660156 149.222656 132.53125 149.222656 M 152.5625 158.355469 C 152.5625 157.878906 152.175781 157.492188 151.703125 157.492188 L 142.402344 157.492188 C 142.175781 151.421875 137.84375 146.582031 132.53125 146.582031 C 127.21875 146.582031 122.886719 151.421875 122.65625 157.492188 L 113.347656 157.492188 C 112.878906 157.5 112.503906 157.886719 112.503906 158.355469 C 112.503906 158.378906 112.503906 158.402344 112.507812 158.425781 L 112.5 158.425781 L 113.828125 187.683594 C 113.828125 187.765625 113.832031 187.847656 113.835938 187.929688 C 113.839844 187.949219 113.839844 187.964844 113.839844 187.984375 L 113.84375 188.046875 L 113.847656 188.050781 C 114.046875 190.085938 115.527344 191.726562 117.535156 191.800781 L 117.539062 191.804688 L 147.074219 191.804688 C 147.089844 191.804688 147.105469 191.804688 147.117188 191.804688 C 147.132812 191.804688 147.144531 191.804688 147.160156 191.804688 L 147.222656 191.804688 C 149.269531 191.75 150.925781 190.085938 151.097656 188.023438 L 151.101562 188.023438 L 151.101562 187.996094 C 151.101562 187.976562 151.105469 187.953125 151.105469 187.929688 C 151.109375 187.878906 151.109375 187.828125 151.113281 187.777344 L 152.558594 158.402344 C 152.558594 158.386719 152.5625 158.371094 152.5625 158.355469 M 251.027344 177.425781 C 251.59375 175.570312 253.316406 174.332031 255.324219 174.332031 C 257.238281 174.332031 259.066406 175.632812 259.695312 177.421875 L 259.738281 177.546875 L 250.988281 177.546875 Z M 261.683594 180.117188 C 261.695312 180.117188 261.695312 180.117188 261.714844 180.117188 C 261.730469 180.117188 261.730469 180.117188 261.75 180.117188 C 262.167969 180.097656 262.5 179.738281 262.5 179.304688 C 262.5 179.285156 262.5 179.265625 262.496094 179.238281 C 262.5 179.230469 262.5 179.21875 262.5 179.1875 C 262.5 175.085938 259.285156 171.765625 255.320312 171.765625 C 251.355469 171.765625 248.144531 175.085938 248.144531 179.1875 C 248.144531 179.492188 248.160156 179.796875 248.195312 180.101562 L 248.199219 180.117188 L 248.210938 180.195312 C 248.40625 181.671875 249.035156 183.023438 250.03125 184.121094 C 250.03125 184.121094 250.03125 184.121094 250.035156 184.125 C 251.140625 185.339844 252.636719 186.164062 254.292969 186.476562 L 254.316406 186.480469 L 254.316406 186.476562 L 254.425781 186.496094 C 254.480469 186.503906 254.539062 186.515625 254.617188 186.527344 C 256.800781 186.789062 258.738281 186.472656 260.378906 185.648438 C 260.785156 185.445312 261.148438 185.21875 261.460938 184.980469 C 261.5625 184.90625 261.652344 184.832031 261.730469 184.761719 C 261.773438 184.726562 261.804688 184.695312 261.824219 184.679688 C 262.191406 184.296875 262.214844 184.164062 261.992188 183.816406 C 261.746094 183.421875 261.53125 183.089844 261.34375 182.8125 C 261.277344 182.71875 261.222656 182.636719 261.175781 182.566406 C 261.148438 182.527344 261.148438 182.527344 261.132812 182.503906 C 261.125 182.496094 261.125 182.496094 261.121094 182.488281 L 261.117188 182.488281 C 260.914062 182.234375 260.777344 182.210938 260.554688 182.410156 C 260.527344 182.433594 260.449219 182.492188 260.433594 182.507812 C 258.855469 183.910156 256.699219 184.363281 254.546875 183.910156 C 254.148438 183.804688 253.773438 183.667969 253.425781 183.5 C 252.078125 182.824219 251.125 181.621094 250.847656 180.226562 L 250.824219 180.117188 Z M 233.945312 177.425781 C 234.515625 175.570312 236.234375 174.332031 238.242188 174.332031 C 240.160156 174.332031 241.984375 175.632812 242.617188 177.421875 L 242.660156 177.546875 L 233.910156 177.546875 Z M 244.605469 180.117188 C 244.617188 180.117188 244.617188 180.117188 244.636719 180.117188 C 244.652344 180.117188 244.652344 180.117188 244.671875 180.117188 C 245.089844 180.097656 245.421875 179.738281 245.421875 179.304688 C 245.421875 179.285156 245.421875 179.265625 245.417969 179.238281 C 245.417969 179.230469 245.417969 179.21875 245.417969 179.1875 C 245.417969 175.085938 242.207031 171.765625 238.242188 171.765625 C 234.277344 171.765625 231.0625 175.085938 231.0625 179.1875 C 231.0625 179.492188 231.082031 179.796875 231.117188 180.101562 L 231.121094 180.117188 L 231.132812 180.195312 C 231.328125 181.671875 231.957031 183.023438 232.953125 184.121094 C 232.953125 184.121094 232.953125 184.121094 232.957031 184.125 C 234.058594 185.339844 235.554688 186.164062 237.214844 186.476562 L 237.238281 186.480469 L 237.238281 186.476562 L 237.34375 186.496094 C 237.402344 186.503906 237.457031 186.515625 237.539062 186.527344 C 239.722656 186.789062 241.660156 186.472656 243.300781 185.648438 C 243.703125 185.445312 244.066406 185.21875 244.382812 184.980469 C 244.484375 184.90625 244.574219 184.832031 244.652344 184.761719 C 244.695312 184.726562 244.726562 184.695312 244.742188 184.679688 C 245.113281 184.296875 245.136719 184.164062 244.914062 183.816406 C 244.667969 183.421875 244.449219 183.089844 244.265625 182.8125 C 244.199219 182.71875 244.144531 182.636719 244.09375 182.566406 C 244.070312 182.527344 244.070312 182.527344 244.050781 182.503906 C 244.046875 182.496094 244.046875 182.496094 244.042969 182.488281 L 244.039062 182.488281 C 243.835938 182.234375 243.699219 182.210938 243.472656 182.410156 C 243.449219 182.433594 243.371094 182.492188 243.355469 182.507812 C 241.777344 183.910156 239.621094 184.363281 237.46875 183.910156 C 237.070312 183.804688 236.695312 183.667969 236.347656 183.5 C 235 182.824219 234.046875 181.621094 233.769531 180.226562 L 233.746094 180.117188 Z M 220.910156 184.203125 C 218.242188 184.203125 216.058594 182.085938 215.992188 179.433594 L 215.992188 179.183594 C 216.058594 176.535156 218.242188 174.421875 220.910156 174.421875 C 223.628906 174.421875 225.832031 176.609375 225.832031 179.3125 C 225.832031 182.011719 223.628906 184.203125 220.910156 184.203125 M 220.914062 171.824219 C 219.164062 171.824219 217.488281 172.421875 216.144531 173.515625 L 215.992188 173.640625 L 215.992188 172.269531 C 215.992188 171.90625 215.914062 171.824219 215.542969 171.824219 L 213.824219 171.824219 C 213.453125 171.824219 213.378906 171.898438 213.378906 172.269531 L 213.378906 194.089844 C 213.378906 194.449219 213.460938 194.539062 213.824219 194.539062 L 215.542969 194.539062 C 215.910156 194.539062 215.992188 194.453125 215.992188 194.089844 L 215.992188 184.992188 L 216.144531 185.117188 C 217.488281 186.210938 219.164062 186.804688 220.914062 186.804688 C 225.074219 186.804688 228.449219 183.453125 228.449219 179.316406 C 228.449219 175.179688 225.074219 171.824219 220.914062 171.824219 M 203.21875 184.035156 C 200.492188 184.035156 198.285156 181.867188 198.285156 179.1875 C 198.285156 176.507812 200.492188 174.335938 203.21875 174.335938 C 205.941406 174.335938 208.148438 176.507812 208.148438 179.1875 C 208.148438 181.867188 205.941406 184.035156 203.21875 184.035156 M 203.21875 171.765625 C 199.046875 171.765625 195.667969 175.089844 195.667969 179.191406 C 195.667969 183.292969 199.046875 186.617188 203.21875 186.617188 C 207.386719 186.617188 210.769531 183.292969 210.769531 179.191406 C 210.769531 175.089844 207.386719 171.765625 203.21875 171.765625 M 186.390625 171.929688 C 184.867188 171.929688 183.394531 172.417969 182.171875 173.324219 L 182.023438 173.433594 L 182.023438 163.300781 C 182.023438 162.964844 181.914062 162.855469 181.578125 162.855469 L 179.777344 162.855469 C 179.414062 162.855469 179.332031 162.941406 179.332031 163.300781 L 179.332031 186.417969 C 179.332031 186.769531 179.421875 186.863281 179.777344 186.863281 L 181.578125 186.863281 C 181.910156 186.863281 182.023438 186.75 182.023438 186.417969 L 182.023438 178.867188 C 182.042969 176.488281 183.992188 174.570312 186.390625 174.570312 C 188.792969 174.570312 190.742188 176.5 190.753906 178.882812 L 190.753906 186.417969 C 190.753906 186.800781 190.816406 186.863281 191.199219 186.863281 L 192.996094 186.863281 C 193.375 186.863281 193.441406 186.796875 193.441406 186.417969 L 193.441406 178.863281 C 193.425781 175.050781 190.25 171.929688 186.390625 171.929688 M 161.324219 182.671875 L 161.320312 182.675781 C 161.066406 183.066406 160.957031 183.230469 160.898438 183.324219 C 160.695312 183.625 160.722656 183.757812 161.03125 184.019531 C 161.75 184.597656 162.675781 185.210938 163.300781 185.515625 C 165.039062 186.367188 166.917969 186.816406 168.90625 186.855469 C 170.195312 186.921875 171.808594 186.613281 173.011719 186.078125 C 175.1875 185.105469 176.574219 183.214844 176.816406 180.882812 C 177.210938 177.105469 174.753906 174.746094 168.421875 172.84375 C 165.472656 171.890625 164.085938 170.628906 164.085938 168.863281 C 164.171875 166.910156 165.980469 165.453125 168.421875 165.363281 C 170.390625 165.367188 172.128906 165.890625 173.835938 166.988281 C 174.195312 167.207031 174.359375 167.167969 174.601562 166.851562 C 174.632812 166.804688 174.707031 166.691406 175.03125 166.226562 L 175.035156 166.226562 C 175.335938 165.792969 175.433594 165.648438 175.460938 165.605469 C 175.664062 165.222656 175.636719 165.074219 175.265625 164.8125 C 174.902344 164.550781 173.882812 164.019531 173.296875 163.785156 C 171.671875 163.136719 169.992188 162.824219 168.320312 162.855469 C 164.515625 162.9375 161.546875 165.414062 161.351562 168.660156 C 161.230469 171.003906 162.417969 172.890625 164.90625 174.285156 C 165.601562 174.652344 168.152344 175.617188 169.339844 175.964844 C 172.722656 176.957031 174.488281 178.777344 174.121094 180.925781 C 173.792969 182.882812 171.746094 184.179688 168.871094 184.269531 C 166.789062 184.226562 164.691406 183.460938 162.871094 182.09375 C 162.859375 182.085938 162.8125 182.050781 162.730469 181.988281 C 162.609375 181.898438 162.609375 181.898438 162.589844 181.886719 C 162.21875 181.628906 162 181.652344 161.773438 181.988281 C 161.746094 182.03125 161.464844 182.460938 161.328125 182.671875 " fill-opacity="1" fill-rule="evenodd"/></g><g clip-path="url(#b48438d113)"><path fill="#0eff00" d="M 221.464844 119.5625 L 194.292969 119.5625 C 190.550781 119.5625 187.5 116.507812 187.5 112.765625 C 187.5 109.027344 190.550781 105.972656 194.292969 105.972656 L 221.464844 105.972656 C 225.207031 105.972656 228.257812 109.027344 228.257812 112.765625 C 228.257812 116.507812 225.207031 119.5625 221.464844 119.5625 Z M 167.117188 119.5625 L 153.53125 119.5625 C 149.789062 119.5625 146.738281 116.507812 146.738281 112.765625 C 146.738281 109.027344 149.789062 105.972656 153.53125 105.972656 L 167.117188 105.972656 C 170.859375 105.972656 173.910156 109.027344 173.910156 112.765625 C 173.910156 116.507812 170.859375 119.5625 167.117188 119.5625 Z M 126.355469 119.5625 C 115.105469 119.5625 105.976562 128.691406 105.976562 139.941406 C 105.976562 143.683594 102.925781 146.734375 99.183594 146.734375 C 95.441406 146.734375 92.390625 143.683594 92.390625 139.941406 C 92.390625 121.207031 107.621094 105.972656 126.355469 105.972656 C 130.097656 105.972656 133.148438 109.027344 133.148438 112.765625 C 133.148438 116.507812 130.097656 119.5625 126.355469 119.5625 Z M 299.246094 110.300781 C 297.945312 100.082031 289.214844 92.386719 278.945312 92.386719 L 96.023438 92.386719 C 85.753906 92.386719 77.050781 100.082031 75.777344 110.273438 L 64.417969 201.082031 L 310.578125 201.082031 L 299.246094 110.300781 " fill-opacity="1" fill-rule="nonzero"/></g><path fill="#0eff00" d="M 310.816406 214.671875 L 64.179688 214.671875 L 59.640625 241.84375 L 315.355469 241.84375 L 310.816406 214.671875 " fill-opacity="1" fill-rule="nonzero"/><g clip-path="url(#4f495a34ad)"><path fill="#0eff00" d="M 343.75 255.429688 L 31.246094 255.429688 C 14.847656 255.429688 1.128906 267.109375 -2.03125 282.605469 L 377.027344 282.605469 C 373.871094 267.109375 360.148438 255.429688 343.75 255.429688 " fill-opacity="1" fill-rule="nonzero"/></g></svg>